<svg width="242" height="48" viewBox="0 0 242 48" fill="none" xmlns="http://www.w3.org/2000/svg">
<path fill-rule="evenodd" clip-rule="evenodd" d="M21.6246 0L21.0612 8.46106H16.9242L16.5458 3.19734L9.96619 3.19734V15.7933H12.7872C12.9975 14.8536 13.1656 13.914 13.5398 12.9722L16.5458 12.9722V21.6204H13.729L12.9764 18.7993H10.1554V32.1478H16.735L17.2984 26.3186L21.8096 26.5288L22.188 35.3662H0.567574L0.567574 32.3601L3.57362 31.7968L3.57362 3.57152L0 3.00815L0 0.00210498L21.6204 0.00210498L21.6246 0ZM97.9318 47.1886C97.9318 46.2489 98.142 45.4963 98.142 44.7438L100.398 44.1804V14.12C99.4579 13.9098 98.7054 13.9098 97.7657 13.7416V11.2968L104.913 10.3572C105.123 11.2968 105.476 12.2365 105.666 12.989C105.876 12.989 105.876 12.7788 106.044 12.7788C107.736 10.7103 109.992 10.147 112.624 10.3341C115.819 10.7124 117.7 12.7788 118.453 15.5978C118.831 16.9137 119.205 18.2296 119.205 19.5456C119.416 22.3666 119.416 25.1856 118.995 27.8174C118.785 28.7571 118.432 29.8859 118.055 30.8235C116.74 33.6445 114.482 35.3347 111.476 35.5238C109.784 35.7341 108.281 35.5239 106.775 34.7713H106.397V44.1951L108.842 44.7585C108.842 45.5111 108.632 46.2615 108.632 47.2033H97.915L97.9318 47.1886ZM106.393 31.5845C108.272 32.337 110.177 32.5241 112.033 31.7947C112.369 31.6465 112.637 31.3781 112.785 31.0421C112.996 30.1025 113.349 29.1628 113.349 28.2211C113.727 25.4 113.727 22.3919 113.559 19.5729C113.554 18.5444 113.364 17.5252 112.996 16.5648C112.432 14.4963 110.927 13.7437 108.859 14.12H108.48C107.164 14.3302 106.412 15.2488 106.412 16.5648V31.5824L106.393 31.5845ZM177.838 32.152L180.283 32.7154C180.283 33.6551 180.283 34.4076 180.072 35.3473H171.801V18.4251C171.801 17.6726 171.59 16.9221 171.422 16.1696C171.212 15.2299 170.483 14.8536 169.543 14.6665C168.603 14.4795 167.851 14.4563 167.098 14.8768C166.346 15.2972 165.782 15.6293 165.782 16.569V32.1731L168.227 32.7364C168.227 33.489 168.017 34.4286 168.017 35.3683H157.489V32.7406L159.934 32.1773V14.3155C158.994 14.1053 158.242 14.1053 157.302 13.9371V11.2758L164.239 10.3362L164.803 12.5917C165.366 12.2134 165.931 11.6521 166.495 11.2758C168.75 9.77279 171.382 9.5836 173.827 10.5232C175.895 11.2758 177.022 12.968 177.401 15.2236C177.611 15.787 177.611 16.5395 177.611 17.1029V31.204C177.748 31.4977 177.813 31.8198 177.8 32.1436L177.838 32.152ZM32.3202 32.3623L34.765 32.9256C34.765 33.8653 34.5548 34.6178 34.5548 35.5575H23.8381C23.8381 34.8049 23.8381 33.8653 24.0483 32.9256L26.3039 32.3623C26.5141 31.7989 26.5141 15.4401 26.3039 14.5005C25.5514 14.2903 24.6117 14.2903 23.6721 14.1221V11.465L30.6091 10.5254L31.1724 12.7809L31.7358 12.2176C33.9914 10.3383 36.6233 9.77279 39.4443 10.5254C41.8891 11.0887 43.2281 12.7809 43.7684 15.2257C43.9786 15.7891 43.9786 16.5416 43.9786 17.105V32.1457L46.4234 32.7091V35.3662H38.1515V19.0116C38.1515 18.4483 38.1515 17.6957 37.9413 17.1323C37.7311 15.6293 36.8125 14.8768 35.4965 14.6876C34.3677 14.4774 33.428 14.6876 32.6755 15.6272C32.2971 16.0056 32.2971 16.3798 32.2971 16.9431V32.3601L32.3202 32.3623ZM215.836 13.7248C214.896 13.7248 214.144 13.5146 213.204 13.5146V11.259L221.289 10.3193C221.667 11.259 222.041 12.1986 222.041 13.3254V32.3139L224.486 32.8773C224.486 33.8169 224.276 34.5695 224.276 35.5091H217.339C217.129 34.9458 216.961 34.1932 216.776 33.4406C216.565 33.6509 216.397 33.819 216.212 33.819C213.391 36.4509 209.633 36.0746 207.188 34.9479C205.308 34.0082 204.367 32.5031 203.993 30.4367C203.782 29.6841 203.782 29.1208 203.782 28.3682V13.8909C202.843 13.6806 201.903 13.6806 201.15 13.5125V11.2758L209.046 10.3362C209.256 11.2758 209.609 12.0284 209.609 12.968V27.2562C209.609 27.8196 209.609 28.5721 209.82 29.1355C210.03 30.8277 211.136 31.9565 212.826 31.9565C213.389 31.9565 214.142 31.7463 214.705 31.7463C215.268 31.5361 216.208 30.4304 216.208 29.867V14.2608C215.83 14.0506 215.83 13.8824 215.83 13.6975L215.836 13.7248ZM84.6274 24.4393C84.6274 26.5078 85.0058 28.2232 85.9434 29.8922C86.883 31.2082 88.199 31.9607 89.8912 32.1478C91.5834 32.1478 93.0864 31.7695 94.5915 31.2082C94.8017 31.2082 94.9699 30.998 95.3441 30.998C95.7225 31.7505 95.9075 32.501 96.2837 33.2536C95.9054 33.6319 95.3441 33.8169 94.9678 34.1932C91.9618 35.8854 88.7665 36.4488 85.5671 35.322C82.746 34.5695 81.0559 32.6902 79.7379 30.0583C78.422 27.2373 78.0457 24.2291 78.422 21.221C78.6322 19.3417 78.9853 17.4371 79.7379 15.7681C81.0538 12.947 83.1013 11.0677 86.1284 10.5043C89.1554 9.94096 91.7684 10.2941 94.024 12.3836C95.3399 13.6996 96.0924 15.3897 96.6558 17.084C97.2192 18.9633 97.4084 20.6576 97.4084 22.5369C97.4084 23.1003 97.03 23.6658 96.845 24.4162L84.6253 24.4162L84.6274 24.4393ZM91.9597 21.2441C91.9597 20.4915 91.7494 19.9282 91.7494 19.3648C91.5392 17.8618 91.3711 16.5437 90.6206 15.2278C89.868 13.7248 88.5521 13.3485 87.047 13.9119C86.4836 14.1221 86.1073 14.4752 85.7311 15.0407C84.9785 17.1092 84.6022 19.1777 84.4151 21.242V21.8054L91.9344 21.242L91.9597 21.2441ZM199.694 24.4393L187.474 24.6495C187.264 25.5892 187.474 26.3418 187.684 27.0943C187.877 28.3293 188.396 29.4904 189.187 30.4577C190.127 31.5866 191.256 32.1499 192.761 32.1499C194.266 32.1499 195.767 31.9397 197.272 31.3974C197.65 31.1872 197.835 31.1872 198.212 31.019C198.59 31.7716 198.775 32.522 199.151 33.2746C198.941 33.2746 198.941 33.4848 198.773 33.4848C196.141 35.3641 193.32 35.9296 190.125 35.7404C186.341 35.362 183.734 33.1085 182.416 29.5391C180.537 25.0279 180.724 20.5147 182.627 16.0014C183.755 13.1803 185.822 11.1139 189.017 10.5485C191.462 9.98511 193.904 10.1701 195.954 11.6773C197.457 12.8062 198.399 14.3092 199.149 15.8143C199.902 17.8828 200.278 20.3255 200.278 22.5832C200.278 23.1465 199.9 23.712 199.715 24.4625L199.694 24.4393ZM194.993 21.2441C194.993 19.5519 194.783 18.0489 194.241 16.5437C194.031 15.7912 193.677 15.0407 193.112 14.4753C192.172 13.1593 189.164 13.5356 188.788 15.2278C188.409 16.5437 188.035 17.8597 187.848 19.3648C187.638 20.1174 187.638 20.8678 187.638 21.8096L194.97 21.2462L194.993 21.2441ZM156.449 24.4393L144.229 24.6495C144.229 26.9051 144.607 28.7865 145.921 30.4787C146.861 31.6076 147.99 32.171 149.285 32.171C150.788 32.171 152.48 31.9607 153.796 31.4184C154.174 31.2082 154.359 31.2082 154.735 31.04C155.114 31.7926 155.299 32.543 155.675 33.2956C155.297 33.5058 155.112 33.674 154.923 33.859C152.23 35.5271 149.012 36.1305 145.898 35.5512C142.892 34.9878 140.822 33.1064 139.508 30.4745C138.192 27.6535 137.815 24.8345 138.005 21.8264C138.215 19.7579 138.568 17.8786 139.321 15.9972C140.26 13.7416 141.765 12.0494 144.021 11.1097C146.653 9.9809 149.285 9.9809 151.917 11.32C153.609 12.2596 154.738 13.7647 155.49 15.4569C156.43 17.7125 156.806 20.1573 156.806 22.6042C157.016 23.1675 156.596 23.733 156.428 24.4835L156.449 24.4393ZM151.748 21.2441C151.748 20.4915 151.538 19.7411 151.538 18.9885C151.328 17.6726 151.16 16.3567 150.409 15.2047C149.47 13.7017 148.154 13.1362 146.625 13.8888C146.247 14.099 145.873 14.2671 145.686 14.8284C144.933 16.3314 144.557 18.0236 144.37 19.7159C144.37 20.2792 144.16 20.8447 144.16 21.5952C146.604 21.5952 149.047 21.3849 151.679 21.2168L151.748 21.2441ZM68.6239 10.5275L69.1873 12.783C69.5657 12.5728 69.7507 12.4047 70.127 12.2197C71.8192 11.28 73.7006 10.7166 75.5799 10.5275C76.5195 10.3172 77.2721 10.7377 77.8355 11.4671L77.0829 18.0468C75.767 18.0468 74.451 17.8366 73.1351 17.8366C72.9249 16.7077 72.7567 15.581 72.7567 14.2629C71.8171 14.2629 71.0645 14.6413 70.312 15.2026V32.1247L72.7567 32.6881C72.7567 33.4406 72.7567 34.3803 72.5465 35.1328L62.0443 35.1328V32.6881L64.2999 32.1247V14.2819C63.3602 14.0716 62.6077 14.0716 61.668 13.9035V11.2758C63.9236 11.2758 66.1792 10.8974 68.605 10.5232L68.6239 10.5275ZM225.611 35.3662C225.611 34.4265 225.611 33.674 225.821 32.9214L228.077 32.358V14.4963C227.324 14.2861 226.384 14.2861 225.445 14.1179V11.465L232.592 10.5254L233.155 12.5938L236.161 11.2779C237.29 10.8995 238.23 10.7145 239.357 10.5254C240.296 10.3151 241.049 10.5254 241.612 11.465L240.86 18.0447C239.544 18.0447 238.228 17.8344 236.912 17.8344C236.702 16.7056 236.533 15.3897 236.533 14.2608L234.089 15.2005V32.3118L236.533 32.8752C236.533 33.6277 236.323 34.5674 236.323 35.3199H225.607L225.611 35.3662ZM132.15 14.2882L129.705 15.2278V32.3391L132.15 32.9025C132.15 33.8421 131.94 34.5947 131.94 35.3473H121.413V32.9025L123.668 32.3391V14.4774C122.729 14.2671 121.976 14.2671 121.036 14.099V11.465L128.184 10.5254L128.747 12.5938L130.815 11.465C132.131 10.9016 133.447 10.5254 134.952 10.3362C136.081 10.3362 136.832 10.7145 137.397 11.465L136.645 18.0447C135.329 18.0447 134.013 17.8344 132.697 17.8344L132.133 14.2608L132.15 14.2882ZM55.0694 5.8271V10.9037H59.4166C59.2064 12.0326 59.2064 12.9722 59.2064 14.099C57.8905 14.099 56.5746 14.3092 55.2586 14.4774V30.4577C55.4688 31.3974 56.0112 32.1499 57.1379 32.1499H59.5827C59.5827 33.0896 59.7929 33.8421 59.7929 34.7818C59.2295 35.1602 58.477 35.3452 57.7244 35.5344C56.2214 35.9127 54.7184 35.9127 53.2133 35.7446C50.9577 35.3662 49.4294 33.8653 49.0763 31.4205V14.4984C48.1366 14.2882 47.197 14.12 46.2552 14.12C46.2552 13.1803 46.2552 12.0515 46.4654 11.1139C47.5943 11.1139 48.5339 10.9037 49.6607 10.9037L50.9766 6.20338L55.1136 5.825L55.0694 5.8271Z" fill="white"/>
</svg>
