<svg width="31" height="30" viewBox="0 0 31 30" fill="none" xmlns="http://www.w3.org/2000/svg">
<path d="M30.5991 14.9999C30.5991 6.71573 23.8833 0 15.5992 0C7.31501 0 0.599274 6.71561 0.599274 14.9999C0.599274 22.4867 6.08455 28.6923 13.2554 29.8175V19.3358H9.44687V14.9999H13.2554V11.6952C13.2554 7.93588 15.4949 5.85933 18.9211 5.85933C20.5623 5.85933 22.2788 6.1523 22.2788 6.1523V9.84368H20.3874C18.5239 9.84368 17.9429 11 17.9429 12.1862V14.9999H22.103L21.438 19.3358H17.9429V29.8175C25.1138 28.6923 30.5991 22.4868 30.5991 14.9999Z" fill="#1877F2"/>
<path d="M21.4381 19.3358L22.1031 14.9999H17.943V12.1863C17.943 10.9999 18.5241 9.84372 20.3875 9.84372H22.2789V6.15234C22.2789 6.15234 20.5623 5.85938 18.9211 5.85938C15.495 5.85938 13.2555 7.93592 13.2555 11.6953V14.9999H9.44696V19.3358H13.2555V29.8176C14.0309 29.9391 14.8145 30 15.5993 29.9998C16.384 30.0001 17.1677 29.9391 17.943 29.8176V19.3358H21.4381Z" fill="white"/>
</svg>
