<svg width="156" height="39" viewBox="0 0 156 39" fill="none" xmlns="http://www.w3.org/2000/svg">
<path d="M153.681 18.6996L152.262 19.0829C150.914 14.4826 148.652 12.5118 145.459 12.5118C143.218 12.5118 141.629 13.9885 141.629 16.3454C141.629 18.5888 143.473 19.7957 148.487 21.8218C153.102 23.52 155.016 25.5987 155.016 29.2335C155.016 34.7639 150.675 38.2326 143.544 38.2326C140.115 38.2326 136.231 37.4659 134.042 36.5898L133.768 28.9055L135.116 28.6315C137.14 33.8892 139.731 35.8785 143.103 35.8785C146.021 35.8785 147.553 33.8523 147.553 31.7708C147.553 29.6893 146.367 28.4853 141.808 26.8439C137.466 25.4198 134.494 23.5583 134.494 18.9395C134.494 14.396 138.488 10.5425 145.276 10.5425C148.487 10.5425 151.405 11.0905 153.32 11.9666L153.681 18.6996ZM124.314 21.1091C124.478 17.4955 123.746 12.2747 120.775 12.2747C117.73 12.2747 116.051 17.1491 115.997 21.3292L124.314 21.1091ZM121.505 10.5226C128.981 10.5226 132.593 15.999 132.649 23.1906H115.817C115.76 29.5615 119.137 34.3791 125.447 34.3791C128.2 34.3791 129.788 33.6124 131.465 32.4083L132.25 33.2844C130.406 35.8032 126.575 38.2113 121.468 38.2113C113.261 38.2113 107.57 32.5716 107.57 24.6119C107.552 17.4203 112.221 10.5198 121.505 10.5198M97.2477 23.8452C97.0832 18.1657 95.0062 13.642 91.0097 13.642C90.0592 13.642 89.3314 13.8067 88.2007 14.1901L88.527 36.0758C88.9285 36.2405 89.8747 36.3499 90.5514 36.3499C94.4359 36.3499 97.2449 30.855 97.2449 23.8466M105.58 23.4206C105.58 32.4197 99.9049 38.2241 90.2776 38.2241C86.8486 38.2241 83.292 37.676 80.2105 36.9647C80.4844 33.3511 80.4844 10.9713 80.2105 6.75428C79.9367 4.56343 79.3168 3.52268 77.62 3.30402L76.4893 3.19469V2.19084L88.3638 0C88.3071 1.84582 88.1992 6.75428 88.1992 12.5033C90.2791 11.4625 92.1929 10.8605 94.782 10.8605C100.965 10.8605 105.564 16.1183 105.564 23.4192M75.3458 18.532C71.6799 16.1225 67.7416 17.1633 66.9556 18.532C66.6094 22.749 66.6818 29.2293 67.0124 32.5688C67.1769 34.7596 67.7969 35.6896 69.4923 35.8543L71.7338 36.073V37.4971H54.9605V36.073L56.2558 35.8543C57.8788 35.6896 58.4448 34.761 58.5541 32.5688C58.9556 29.0092 59.0648 21.5436 58.5541 17.4359C58.4448 15.0818 57.8788 14.2043 56.2558 13.9856L54.9605 13.8209V12.8355L66.9428 10.5354L66.7783 16.6692C69.5873 10.3167 75.1685 9.54999 78.196 11.2481L75.3458 18.532ZM36.0237 24.4103C36.0237 31.1092 37.8297 36.5856 41.4772 36.5856C45.4169 36.5856 46.5476 31.2185 46.5476 24.4103C46.5476 17.602 44.7969 12.2903 41.0941 12.2903C37.1217 12.2903 36.0237 17.4927 36.0237 24.4103ZM55.0286 24.3009C55.0286 31.9852 49.9582 38.2156 40.9125 38.2156C32.0116 38.2156 27.5256 32.2834 27.5256 24.5068C27.5256 16.8765 32.5961 10.524 41.6417 10.524C50.5427 10.524 55.0286 16.4931 55.0286 24.2867M31.7335 11.0707L29.8892 11.6187C28.3201 6.23319 25.548 3.16771 20.7698 3.16771H14.5318C14.1856 6.74576 14.021 12.2761 14.1856 18.2466L18.3424 18.028C21.1514 18.028 22.336 16.0018 23.0241 13.0585H24.5932V25.5078H22.9971C22.3218 22.4977 21.1528 20.4531 18.3154 20.287L14.1586 20.2302C14.1586 24.6658 14.2154 28.4625 14.5048 30.7627C14.7786 34.0483 15.6908 35.5448 18.0984 35.8558L20.3598 36.0744V37.4985H0L0 36.0744L1.69677 35.8558C4.04897 35.5292 5.01653 34.0483 5.29034 30.7627C5.74432 25.3956 5.85782 13.9331 5.29034 7.56218C5.01653 4.15451 4.05039 2.79855 1.69677 2.52451L0 2.25048L0 0.773825L31.6938 0.773825L31.7335 11.0707Z" fill="white"/>
</svg>
