<svg width="31" height="30" viewBox="0 0 31 30" fill="none" xmlns="http://www.w3.org/2000/svg">
<path d="M27.8856 0.000113606H2.31198C1.73173 -0.00579163 1.17284 0.218729 0.757935 0.624411C0.343033 1.03009 0.106011 1.5838 0.098877 2.16403V27.8409C0.107301 28.4203 0.34489 28.9727 0.759652 29.3773C1.17441 29.782 1.73257 30.0058 2.31198 29.9999H27.8856C28.4658 30.0045 29.0244 29.7792 29.439 29.3733C29.8537 28.9673 30.0909 28.4138 30.0987 27.8335V2.15665C30.0883 1.57812 29.85 1.02706 29.4356 0.623238C29.0212 0.219418 28.4642 -0.00451463 27.8856 0.000113606Z" fill="#0076B2"/>
<path d="M4.53989 11.2454H8.99313V25.5739H4.53989V11.2454ZM6.76774 4.11426C7.27851 4.11426 7.7778 4.26575 8.20245 4.54957C8.6271 4.83338 8.95803 5.23677 9.15338 5.70871C9.34873 6.18064 9.39972 6.69991 9.29989 7.20082C9.20007 7.70174 8.95392 8.16179 8.59258 8.52279C8.23124 8.88378 7.77095 9.12949 7.26994 9.22884C6.76893 9.32819 6.24971 9.27671 5.77797 9.08091C5.30622 8.88511 4.90315 8.55379 4.61973 8.12887C4.33632 7.70395 4.18531 7.20451 4.18579 6.69375C4.18644 6.0094 4.45876 5.3533 4.9429 4.86962C5.42703 4.38595 6.08339 4.11426 6.76774 4.11426ZM11.7866 11.2454H16.0554V13.2125H16.1144C16.7095 12.0863 18.1603 10.8986 20.3267 10.8986C24.8365 10.8888 25.6725 13.8568 25.6725 17.7051V25.5739H21.2193V18.6027C21.2193 16.9428 21.1898 14.806 18.9054 14.806C16.6209 14.806 16.2324 16.6158 16.2324 18.4945V25.5739H11.7866V11.2454Z" fill="white"/>
</svg>
