<svg width="31" height="30" viewBox="0 0 31 30" fill="none" xmlns="http://www.w3.org/2000/svg">
<path d="M23.4681 0H7.53071C3.64749 0 0.499512 3.14797 0.499512 7.0312V22.9686C0.499512 26.8518 3.64749 29.9998 7.53071 29.9998H23.4681C27.3513 29.9998 30.4993 26.8518 30.4993 22.9686V7.0312C30.4993 3.14797 27.3513 0 23.4681 0Z" fill="url(#paint0_radial_202_206)"/>
<path d="M23.4681 0H7.53071C3.64749 0 0.499512 3.14797 0.499512 7.0312V22.9686C0.499512 26.8518 3.64749 29.9998 7.53071 29.9998H23.4681C27.3513 29.9998 30.4993 26.8518 30.4993 22.9686V7.0312C30.4993 3.14797 27.3513 0 23.4681 0Z" fill="url(#paint1_radial_202_206)"/>
<path d="M15.5005 3.28125C12.3179 3.28125 11.9184 3.2952 10.6685 3.35203C9.42096 3.40922 8.56936 3.60668 7.82429 3.89648C7.05343 4.19577 6.39965 4.5962 5.74833 5.24776C5.09642 5.8992 4.69599 6.55298 4.39576 7.32348C4.10513 8.06879 3.90744 8.92074 3.85131 10.1677C3.79541 11.4178 3.78076 11.8174 3.78076 15C3.78076 18.1827 3.79482 18.5809 3.85154 19.8308C3.90896 21.0784 4.10642 21.93 4.39599 22.675C4.69552 23.4459 5.09595 24.0997 5.74751 24.751C6.39871 25.4029 7.0525 25.8043 7.82276 26.1036C8.56842 26.3934 9.42013 26.5908 10.6675 26.648C11.9175 26.7049 12.3166 26.7188 15.4991 26.7188C18.682 26.7188 19.0802 26.7049 20.3301 26.648C21.5777 26.5908 22.4302 26.3934 23.1759 26.1036C23.9464 25.8043 24.5992 25.4029 25.2503 24.751C25.9022 24.0997 26.3025 23.4459 26.6029 22.6754C26.8909 21.93 27.0887 21.0781 27.1473 19.831C27.2034 18.5811 27.2181 18.1827 27.2181 15C27.2181 11.8174 27.2034 11.418 27.1473 10.168C27.0887 8.92039 26.8909 8.06891 26.6029 7.32384C26.3025 6.55298 25.9022 5.8992 25.2503 5.24776C24.5985 4.59597 23.9466 4.19554 23.1752 3.8966C22.4281 3.60668 21.576 3.4091 20.3285 3.35203C19.0784 3.2952 18.6805 3.28125 15.4968 3.28125H15.5005ZM14.4492 5.39307C14.7613 5.3926 15.1094 5.39307 15.5005 5.39307C18.6295 5.39307 19.0003 5.40432 20.2359 5.46045C21.3784 5.51272 21.9986 5.70361 22.4117 5.86404C22.9586 6.07639 23.3485 6.33033 23.7584 6.7406C24.1685 7.15075 24.4224 7.54133 24.6353 8.08824C24.7957 8.50074 24.9869 9.12089 25.0389 10.2635C25.095 11.4988 25.1072 11.8699 25.1072 14.9973C25.1072 18.1248 25.095 18.4959 25.0389 19.7312C24.9866 20.8738 24.7957 21.4939 24.6353 21.9065C24.423 22.4534 24.1685 22.8429 23.7584 23.2528C23.3482 23.6629 22.9588 23.9168 22.4117 24.1292C21.9991 24.2903 21.3784 24.4808 20.2359 24.533C19.0005 24.5892 18.6295 24.6014 15.5005 24.6014C12.3714 24.6014 12.0005 24.5892 10.7652 24.533C9.62263 24.4803 9.00248 24.2894 8.58905 24.129C8.04225 23.9165 7.65155 23.6627 7.2414 23.2525C6.83125 22.8424 6.57742 22.4527 6.36449 21.9056C6.20406 21.493 6.01293 20.8728 5.9609 19.7303C5.90477 18.4949 5.89352 18.1239 5.89352 14.9944C5.89352 11.8651 5.90477 11.4959 5.9609 10.2605C6.01317 9.11796 6.20406 8.49781 6.36449 8.08473C6.57695 7.53782 6.83125 7.14724 7.24152 6.73708C7.65167 6.32693 8.04225 6.07299 8.58916 5.86018C9.00225 5.69904 9.62263 5.50862 10.7652 5.45612C11.8462 5.40725 12.2652 5.3926 14.4492 5.39014V5.39307ZM21.7559 7.33884C20.9795 7.33884 20.3497 7.96813 20.3497 8.74461C20.3497 9.52097 20.9795 10.1508 21.7559 10.1508C22.5323 10.1508 23.1621 9.52097 23.1621 8.74461C23.1621 7.96825 22.5323 7.33837 21.7559 7.33837V7.33884ZM15.5005 8.98191C12.1771 8.98191 9.48248 11.6765 9.48248 15C9.48248 18.3236 12.1771 21.0169 15.5005 21.0169C18.824 21.0169 21.5177 18.3236 21.5177 15C21.5177 11.6766 18.8238 8.98191 15.5002 8.98191H15.5005ZM15.5005 11.0937C17.6578 11.0937 19.4068 12.8425 19.4068 15C19.4068 17.1573 17.6578 18.9063 15.5005 18.9063C13.3431 18.9063 11.5943 17.1573 11.5943 15C11.5943 12.8425 13.3431 11.0937 15.5005 11.0937Z" fill="white"/>
<defs>
<radialGradient id="paint0_radial_202_206" cx="0" cy="0" r="1" gradientUnits="userSpaceOnUse" gradientTransform="translate(8.4682 32.3103) rotate(-90) scale(29.732 27.6531)">
<stop stop-color="#FFDD55"/>
<stop offset="0.1" stop-color="#FFDD55"/>
<stop offset="0.5" stop-color="#FF543E"/>
<stop offset="1" stop-color="#C837AB"/>
</radialGradient>
<radialGradient id="paint1_radial_202_206" cx="0" cy="0" r="1" gradientUnits="userSpaceOnUse" gradientTransform="translate(-4.52557 2.16104) rotate(78.681) scale(13.2904 54.7833)">
<stop stop-color="#3771C8"/>
<stop offset="0.128" stop-color="#3771C8"/>
<stop offset="1" stop-color="#6600FF" stop-opacity="0"/>
</radialGradient>
</defs>
</svg>
