<svg width="18" height="15" viewBox="0 0 18 15" fill="none" xmlns="http://www.w3.org/2000/svg">
<path fill-rule="evenodd" clip-rule="evenodd" d="M11.8384 0.899905C11.4249 0.486409 10.7545 0.486409 10.341 0.899905C9.92749 1.3134 9.92749 1.98381 10.341 2.39731L14.3851 6.44145L1.05882 6.44145C0.474051 6.44145 0 6.9155 0 7.50027C0 8.08504 0.474051 8.55909 1.05882 8.55909L14.3846 8.5591L10.341 12.6027C9.92749 13.0162 9.92749 13.6866 10.341 14.1001C10.7545 14.5136 11.4249 14.5136 11.8384 14.1001L17.673 8.2655C17.8745 8.07273 18 7.80116 18 7.50027C18 7.36236 17.9736 7.23061 17.9257 7.10979C17.874 6.97924 17.7954 6.85689 17.6898 6.7513L11.8384 0.899905Z" fill="black"/>
</svg>
