<svg width="138" height="138" viewBox="0 0 138 138" fill="none" xmlns="http://www.w3.org/2000/svg">
<circle cx="69" cy="69" r="69" fill="#081326" fill-opacity="0.25"/>
<circle cx="69" cy="69" r="52.2" fill="#090826"/>
<path d="M61.5 82.5L82.5 69L61.5 55.5V82.5ZM69 99C64.85 99 60.95 98.212 57.3 96.636C53.65 95.062 50.475 92.925 47.775 90.225C45.075 87.525 42.938 84.35 41.364 80.7C39.788 77.05 39 73.15 39 69C39 64.85 39.788 60.95 41.364 57.3C42.938 53.65 45.075 50.475 47.775 47.775C50.475 45.075 53.65 42.937 57.3 41.361C60.95 39.787 64.85 39 69 39C73.15 39 77.05 39.787 80.7 41.361C84.35 42.937 87.525 45.075 90.225 47.775C92.925 50.475 95.062 53.65 96.636 57.3C98.212 60.95 99 64.85 99 69C99 73.15 98.212 77.05 96.636 80.7C95.062 84.35 92.925 87.525 90.225 90.225C87.525 92.925 84.35 95.062 80.7 96.636C77.05 98.212 73.15 99 69 99Z" fill="white"/>
</svg>
