<svg width="30" height="26" viewBox="0 0 30 26" fill="none" xmlns="http://www.w3.org/2000/svg">
<path d="M26.9286 6.76884C26.9468 7.03345 26.9468 7.29782 26.9468 7.56477C26.9468 15.6975 20.7554 25.0771 9.43446 25.0771V25.0725C6.08998 25.0771 2.81481 24.1192 0 22.3129C0.486325 22.3715 0.974993 22.4008 1.46483 22.402C4.23679 22.4042 6.92902 21.4745 9.10892 19.7623C7.82454 19.738 6.57986 19.313 5.54889 18.5466C4.51792 17.7803 3.7522 16.7109 3.3588 15.488C4.28153 15.6661 5.23215 15.6293 6.13777 15.3818C3.26623 14.8018 1.20046 12.279 1.20046 9.34906V9.27101C2.05646 9.74789 3.01452 10.0121 3.99396 10.0414C1.28905 8.23391 0.455856 4.63605 2.08897 1.82333C3.63417 3.72472 5.56205 5.27981 7.7474 6.38759C9.93275 7.49536 12.3267 8.13105 14.7737 8.25336C14.5298 7.20308 14.5659 6.10717 14.8784 5.07522C15.1909 4.04327 15.7689 3.11145 16.5545 2.37294C19.0335 0.0425651 22.9323 0.162096 25.2624 2.63989C26.6408 2.36772 27.9626 1.86235 29.171 1.14553C28.7115 2.57068 27.7501 3.78043 26.4654 4.5498C27.6855 4.40594 28.877 4.07924 29.9998 3.58066C29.1738 4.8176 28.1338 5.89724 26.9286 6.76884Z" fill="#1D9BF0"/>
</svg>
