<svg width="173" height="63" viewBox="0 0 173 63" fill="none" xmlns="http://www.w3.org/2000/svg">
<path fill-rule="evenodd" clip-rule="evenodd" d="M62.0161 18.9583V37.9167H66.7076H71.3991V30.625C71.3991 25.8125 71.3991 23.1875 71.3991 22.8958C71.5458 22.1667 71.6924 21.4375 72.1322 20.8542C72.7186 19.8333 73.7449 19.3958 74.9178 19.5417C76.5305 19.6875 77.5568 20.5625 77.85 22.4583C77.85 22.75 77.85 25.6667 77.85 30.3333V37.7708H82.5415H87.233V29.0208C87.233 21.5833 87.2331 20.125 87.0864 19.3958C86.7932 16.7708 85.9136 14.7292 84.3008 13.2708C82.9814 11.9583 81.3686 11.2292 79.4627 10.9375C78.7297 10.7917 76.6771 10.9375 76.0907 11.0833C74.3314 11.5208 73.0119 12.1042 71.839 13.4167L71.1059 14V7V0L66.4144 0L61.7229 0V18.9583H62.0161ZM161.711 0.291668C161.418 0.875001 151.888 23.7708 151.888 23.7708C151.888 23.7708 154.381 23.7708 157.459 23.7708H163.03L168.015 11.9583C170.801 5.39584 173 0 173 0C173 0 170.508 0 167.429 0L161.858 0L161.711 0.291668ZM41.4907 11.0833C39.4381 11.375 37.8254 11.9583 36.2127 12.9792C32.9873 15.0208 30.9347 18.5208 30.3483 22.6042C30.0551 24.5 30.2017 26.8333 30.6415 28.5833C31.8144 33.1042 34.8932 36.6042 38.8517 37.9167C40.3178 38.3542 40.9042 38.5 42.6636 38.5C43.983 38.5 44.4229 38.5 44.8627 38.3542C46.7686 37.9167 48.0881 37.1875 49.261 36.0208L49.8475 35.4375V36.6042V37.7708H54.3924H58.9373V24.6458V11.5208H54.3924H49.8475V12.6875V13.8542L49.4076 13.4167C48.3814 12.25 46.9153 11.5208 45.0093 11.0833C44.4229 10.9375 44.1297 10.9375 42.9568 10.9375C42.2237 11.0833 41.6373 11.0833 41.4907 11.0833ZM101.308 11.0833C98.8152 11.375 96.1763 12.5417 94.2703 14C90.6051 17.0625 88.6991 21.875 89.4322 26.8333C90.1653 32.375 94.1237 36.6042 99.6949 38.0625C100.868 38.3542 102.041 38.5 103.507 38.5C106.146 38.5 108.052 38.0625 110.104 37.0417C114.209 35 116.848 31.3542 117.435 26.8333C117.581 25.6667 117.581 23.7708 117.435 22.75C117.142 20.5625 116.262 18.375 114.942 16.625C114.356 15.8958 113.183 14.5833 112.45 14C110.397 12.3958 108.052 11.375 105.413 11.0833C104.386 10.9375 102.334 10.9375 101.308 11.0833ZM131.216 11.0833C128.724 11.375 126.231 12.3958 124.325 14C123.592 14.5833 122.273 15.8958 121.833 16.625C120.514 18.375 119.781 20.5625 119.341 22.75C119.194 23.7708 119.194 25.8125 119.341 26.8333C120.22 32.6667 124.472 37.1875 130.336 38.3542C131.509 38.6458 132.096 38.6458 133.415 38.6458C135.908 38.6458 138.107 38.2083 140.159 37.0417C145.584 34.2708 148.516 28.1458 147.197 21.875C146.024 16.0417 141.332 11.8125 135.321 11.0833C134.295 10.9375 132.242 10.9375 131.216 11.0833ZM0 11.6667C0 11.6667 2.49237 17.6458 5.57119 24.9375C8.65 32.2292 11.1424 38.2083 11.1424 38.2083C11.1424 38.2083 10.2627 40.3958 9.08983 43.0208C7.91695 45.6458 7.03729 47.6875 7.03729 47.8333C7.03729 47.9792 9.23644 47.8333 12.022 47.8333H17.0068L24.4839 29.8958C28.589 19.9792 31.961 11.9583 31.961 11.8125C31.961 11.8125 30.9347 11.6667 26.9763 11.8125H21.9915L18.9127 19.3958C17.5932 23.4792 16.2737 26.9792 16.2737 26.9792C16.2737 26.9792 14.9542 23.4792 13.1949 19.3958L10.2627 11.8125H5.13136C2.34576 11.6667 0 11.6667 0 11.6667ZM46.0356 19.5417C47.9415 19.9792 49.4076 21.4375 49.9941 23.3333C50.1407 24.0625 50.1407 25.375 49.9941 26.1042C49.5542 28 48.0881 29.4583 46.1822 29.8958C45.4492 30.0417 44.1297 30.0417 43.3966 29.8958C41.7839 29.4583 40.3178 28.2917 39.7314 26.8333C38.9983 25.2292 39.2915 23.1875 40.1712 21.7292C41.4907 19.8333 43.6898 19.1042 46.0356 19.5417ZM104.533 19.6875C106.586 19.9792 108.198 21.5833 108.638 23.625C108.785 24.3542 108.785 25.5208 108.638 26.25C108.198 28.1458 106.732 29.4583 104.973 30.0417C104.386 30.1875 102.774 30.1875 102.187 30.0417C100.721 29.6042 99.5483 28.5833 98.8153 27.2708C98.3754 26.3958 98.3754 25.9583 98.3754 24.9375C98.3754 24.0625 98.522 23.625 98.8153 22.8958C99.2551 22.0208 99.8415 21.1458 100.721 20.5625C101.601 19.6875 103.067 19.3958 104.533 19.6875ZM134.295 19.6875C136.054 19.9792 137.52 21.1458 138.107 22.75C138.4 23.4792 138.547 23.9167 138.547 24.7917C138.547 25.8125 138.4 26.25 138.107 27.125C137.52 28.4375 136.201 29.4583 134.735 29.8958C134.148 30.0417 132.536 30.0417 131.949 29.8958C130.19 29.4583 128.724 28 128.284 26.1042C128.137 25.375 128.137 24.0625 128.284 23.3333C128.87 21 130.923 19.3958 133.269 19.3958C133.562 19.5417 134.002 19.5417 134.295 19.6875ZM154.234 26.1042C151.448 26.3958 149.396 28.4375 148.809 31.0625C148.663 31.7917 148.663 33.1042 148.809 33.8333C149.396 36.1667 151.155 37.7708 153.501 38.3542C153.794 38.3542 154.381 38.5 154.82 38.5C156.58 38.5 158.046 37.9167 159.219 36.75C160.538 35.4375 160.978 34.125 160.978 32.375C160.978 30.1875 159.952 28.2917 158.192 27.2708C157.019 26.25 155.407 25.9583 154.234 26.1042ZM76.9703 40.3958C75.0644 40.9792 74.1847 43.1667 75.211 44.7708C75.5042 45.2083 76.0907 45.7917 76.5305 45.9375C76.9703 46.0833 76.9703 46.0833 77.85 46.0833C78.583 46.0833 78.7297 46.0833 79.1695 45.9375C79.7559 45.6458 80.3424 45.0625 80.6356 44.4792C81.3686 43.0208 80.6356 41.2708 79.1695 40.5417C78.7297 40.25 78.583 40.25 77.9966 40.25C77.4102 40.25 77.2636 40.25 76.9703 40.3958ZM69.0534 40.5417C66.561 40.9792 64.9483 42.5833 64.2153 45.2083C64.0686 45.6458 64.0686 46.0833 64.0686 46.6667V47.6875H63.0424H62.0161V49.875V52.0625H63.0424H64.0686V57.3125V62.5625H66.8542H69.6398V57.3125V52.0625H71.5458H73.4517V49.875V47.6875H71.5458H69.6398V47.25C69.7864 46.2292 70.2263 45.5 71.1059 45.3542C71.6924 45.2083 72.572 45.2083 73.1585 45.5C73.4517 45.6458 73.5983 45.6458 73.5983 45.6458C73.5983 45.6458 73.5983 44.625 73.5983 43.3125V40.9792L73.1585 40.8333C72.572 40.5417 71.839 40.5417 70.8127 40.5417C70.0797 40.3958 69.4932 40.5417 69.0534 40.5417ZM91.3381 47.3958C90.1653 47.6875 89.2856 48.2708 88.6991 49L88.4059 49.4375V48.5625V47.6875H85.6203H82.8347V55.125V62.5625H85.6203H88.4059V58.4792C88.4059 56.1458 88.4059 54.25 88.4059 53.9583C88.5525 53.375 88.8458 52.7917 89.139 52.5C89.872 51.9167 91.1915 52.0625 91.778 52.7917C92.2178 53.375 92.2178 53.375 92.2178 58.0417V62.4167H95.0034H97.789V57.4583C97.789 52.2083 97.789 51.625 97.4958 50.6042C97.2025 49.7292 96.9093 49 96.1763 48.4167C95.5898 47.8333 95.0034 47.3958 94.1237 47.25C93.3907 47.25 91.9246 47.25 91.3381 47.3958ZM105.266 47.25C104.386 47.3958 103.067 47.8333 102.334 48.4167C100.721 49.5833 99.6949 51.3333 99.2551 53.5208C99.1085 54.3958 99.1085 56 99.2551 56.875C99.5483 58.1875 99.9881 59.5 100.721 60.375C101.747 61.6875 103.067 62.5625 104.68 62.8542C105.559 63 107.025 63 107.758 62.7083C108.638 62.4167 109.225 62.125 109.958 61.5417L110.544 60.9583V61.6875V62.4167H113.33H116.115V54.9792V47.5417H113.33H110.544V48.2708V49L110.104 48.8542C109.371 48.125 108.345 47.5417 107.172 47.3958C106.732 47.25 105.706 47.25 105.266 47.25ZM126.525 47.3958C125.498 47.5417 124.472 48.2708 123.886 49L123.592 49.2917V48.4167V47.5417H120.807H118.021V54.9792V62.4167H120.807H123.592V58.1875C123.592 53.6667 123.592 53.6667 123.886 52.9375C124.179 52.3542 124.765 52.0625 125.352 52.0625C125.938 52.0625 126.231 52.2083 126.671 52.5C127.258 53.0833 127.258 52.9375 127.258 57.8958V62.2708L130.043 62.2708H132.829V56.875C132.829 51.4792 132.829 51.4792 132.682 50.8958C132.536 50.6042 132.389 50.0208 132.242 49.5833C131.949 49 131.803 48.8542 131.363 48.4167C130.776 47.8333 130.336 47.5417 129.75 47.25C128.724 47.25 127.551 47.1042 126.525 47.3958ZM141.039 47.3958C138.547 47.8333 136.641 49 135.468 51.0417C135.175 51.625 134.881 52.3542 134.588 53.0833C134.442 53.8125 134.442 53.9583 134.442 55.125C134.442 56.4375 134.442 56.875 134.881 57.8958C135.761 60.375 137.814 62.2708 140.599 62.8542C141.039 63 141.479 63 142.505 63C143.971 63 144.558 62.8542 145.584 62.4167L146.17 62.125V59.6458V57.1667L145.731 57.4583C144.997 57.8958 144.558 58.0417 143.678 58.0417C142.798 58.0417 142.358 58.0417 141.772 57.75C141.186 57.4583 140.746 57.0208 140.453 56.4375C140.306 56 140.306 56 140.306 55.2708C140.306 54.6875 140.306 54.5417 140.453 54.1042C140.892 52.9375 141.919 52.3542 143.385 52.2083C144.411 52.2083 144.851 52.2083 146.317 52.9375C146.317 52.9375 146.317 51.7708 146.317 50.4583V47.9792L145.877 47.8333C144.264 47.25 142.505 47.1042 141.039 47.3958ZM153.647 47.3958C149.396 48.125 146.757 51.7708 147.05 56C147.197 57.4583 147.636 58.7708 148.369 59.7917C149.396 61.3958 151.008 62.4167 153.061 62.8542C153.941 63 156.286 63 157.313 62.8542C158.779 62.5625 160.098 61.8333 161.125 60.8125C161.564 60.375 162.297 59.3542 162.297 59.3542C162.297 59.3542 161.271 58.9167 159.952 58.4792L157.606 57.6042L157.313 57.8958C156.873 58.3333 156.58 58.4792 155.993 58.625C154.381 59.0625 152.768 58.1875 152.475 56.7292V56.4375H157.606H162.737V55.125C162.737 54.25 162.737 53.6667 162.591 53.375C162.297 51.625 161.564 50.4583 160.538 49.2917C159.512 48.2708 158.339 47.6875 156.726 47.3958C156.14 47.25 154.381 47.25 153.647 47.3958ZM75.0644 55.125V62.5625H77.85H80.6356V55.125V47.6875H77.85H75.0644V55.125ZM155.847 51.4792C156.286 51.625 156.433 51.7708 156.873 52.0625C157.166 52.3542 157.459 52.6458 157.459 53.0833V53.375H154.967C152.181 53.375 152.328 53.375 152.621 52.7917C153.061 51.7708 154.381 51.1875 155.847 51.4792ZM108.492 52.2083C109.225 52.3542 110.104 53.0833 110.397 53.8125C111.131 55.4167 110.397 57.3125 108.638 57.8958C108.052 58.0417 107.172 58.0417 106.586 57.8958C105.706 57.6042 104.826 56.875 104.68 56C104.533 55.5625 104.533 55.4167 104.533 54.9792C104.533 54.3958 104.533 54.25 104.826 53.8125C105.413 52.5 106.879 51.9167 108.492 52.2083Z" fill="white"/>
</svg>
